<?xml version="1.0" encoding="UTF-8"?>
<!DOCTYPE svg PUBLIC "-//W3C//DTD SVG 1.1//EN" "http://www.w3.org/Graphics/SVG/1.1/DTD/svg11.dtd">
<svg xmlns="http://www.w3.org/2000/svg" version="1.1" width="500px" height="500px" style="shape-rendering:geometricPrecision; text-rendering:geometricPrecision; image-rendering:optimizeQuality; fill-rule:evenodd; clip-rule:evenodd" xmlns:xlink="http://www.w3.org/1999/xlink">
<g><path style="opacity:1" fill="#141414" d="M -0.5,-0.5 C 166.167,-0.5 332.833,-0.5 499.5,-0.5C 499.5,166.167 499.5,332.833 499.5,499.5C 332.833,499.5 166.167,499.5 -0.5,499.5C -0.5,332.833 -0.5,166.167 -0.5,-0.5 Z"/></g>
<g><path style="opacity:1" fill="#5170fd" d="M 194.5,315.5 C 194.5,271.5 194.5,227.5 194.5,183.5C 188.167,183.5 181.833,183.5 175.5,183.5C 175.5,227.5 175.5,271.5 175.5,315.5C 162.833,315.5 150.167,315.5 137.5,315.5C 137.667,295.164 137.5,274.831 137,254.5C 136.487,255.527 135.987,256.527 135.5,257.5C 126.281,276.603 117.614,295.936 109.5,315.5C 103.242,315.81 97.0758,315.476 91,314.5C 82.4264,295.021 73.593,275.688 64.5,256.5C 64.2172,255.711 63.7172,255.044 63,254.5C 62.5,274.831 62.3334,295.164 62.5,315.5C 49.8333,315.5 37.1667,315.5 24.5,315.5C 24.5,268.833 24.5,222.167 24.5,175.5C 37.1842,175.168 49.8508,175.501 62.5,176.5C 75,203.5 87.5,230.5 100,257.5C 113.178,230.46 125.678,203.126 137.5,175.5C 182.167,175.5 226.833,175.5 271.5,175.5C 271.5,187.167 271.5,198.833 271.5,210.5C 251.5,210.5 231.5,210.5 211.5,210.5C 211.5,216.833 211.5,223.167 211.5,229.5C 225.833,229.5 240.167,229.5 254.5,229.5C 254.5,240.167 254.5,250.833 254.5,261.5C 240.167,261.5 225.833,261.5 211.5,261.5C 211.5,267.833 211.5,274.167 211.5,280.5C 231.5,280.5 251.5,280.5 271.5,280.5C 271.5,292.167 271.5,303.833 271.5,315.5C 245.833,315.5 220.167,315.5 194.5,315.5 Z"/></g>
<g><path style="opacity:1" fill="#5170fd" d="M 394.5,185.5 C 388.69,184.51 382.69,184.177 376.5,184.5C 376.5,193.167 376.5,201.833 376.5,210.5C 356.5,210.5 336.5,210.5 316.5,210.5C 316.5,216.833 316.5,223.167 316.5,229.5C 330.833,229.5 345.167,229.5 359.5,229.5C 359.5,240.167 359.5,250.833 359.5,261.5C 345.167,261.5 330.833,261.5 316.5,261.5C 316.5,267.833 316.5,274.167 316.5,280.5C 336.5,280.5 356.5,280.5 376.5,280.5C 376.5,292.167 376.5,303.833 376.5,315.5C 347.5,315.5 318.5,315.5 289.5,315.5C 289.5,306.833 289.5,298.167 289.5,289.5C 284.833,289.5 280.167,289.5 275.5,289.5C 275.5,266.167 275.5,242.833 275.5,219.5C 280.167,219.5 284.833,219.5 289.5,219.5C 289.5,207.833 289.5,196.167 289.5,184.5C 284.833,184.5 280.167,184.5 275.5,184.5C 275.5,181.5 275.5,178.5 275.5,175.5C 343.5,175.5 411.5,175.5 479.5,175.5C 479.5,187.167 479.5,198.833 479.5,210.5C 467.167,210.5 454.833,210.5 442.5,210.5C 442.5,245.5 442.5,280.5 442.5,315.5C 428.5,315.5 414.5,315.5 400.5,315.5C 400.5,280.5 400.5,245.5 400.5,210.5C 398.5,210.5 396.5,210.5 394.5,210.5C 394.5,202.167 394.5,193.833 394.5,185.5 Z"/></g>
<g><path style="opacity:1" fill="#303f83" d="M 194.5,315.5 C 193.501,272.003 193.168,228.337 193.5,184.5C 187.833,184.5 182.167,184.5 176.5,184.5C 176.832,228.337 176.499,272.003 175.5,315.5C 175.5,271.5 175.5,227.5 175.5,183.5C 181.833,183.5 188.167,183.5 194.5,183.5C 194.5,227.5 194.5,271.5 194.5,315.5 Z"/></g>
<g><path style="opacity:1" fill="#1e233b" d="M 394.5,185.5 C 388.833,185.5 383.167,185.5 377.5,185.5C 377.826,194.017 377.493,202.35 376.5,210.5C 376.5,201.833 376.5,193.167 376.5,184.5C 382.69,184.177 388.69,184.51 394.5,185.5 Z"/></g>
<g><path style="opacity:1" fill="#354797" d="M 64.5,256.5 C 63.8333,276.167 63.1667,295.833 62.5,315.5C 62.3334,295.164 62.5,274.831 63,254.5C 63.7172,255.044 64.2172,255.711 64.5,256.5 Z"/></g>
<g><path style="opacity:1" fill="#1a1d2e" d="M 137.5,315.5 C 136.833,296.167 136.167,276.833 135.5,257.5C 135.987,256.527 136.487,255.527 137,254.5C 137.5,274.831 137.667,295.164 137.5,315.5 Z"/></g>
</svg>
